<?xml version="1.0" encoding="UTF-8" standalone="no"?>
<!DOCTYPE svg PUBLIC "-//W3C//DTD SVG 1.1//EN"
 "http://www.w3.org/Graphics/SVG/1.1/DTD/svg11.dtd">
<!-- Generated by graphviz version 2.43.0 (0)
 -->
<!-- Title: %3 Pages: 1 -->
<svg width="1927pt" height="1103pt"
 viewBox="0.00 0.00 1926.98 1103.19" xmlns="http://www.w3.org/2000/svg" xmlns:xlink="http://www.w3.org/1999/xlink">
<g id="graph0" class="graph" transform="scale(1 1) rotate(0) translate(4 1099.19)">
<title>%3</title>
<polygon fill="white" stroke="transparent" points="-4,4 -4,-1099.19 1922.98,-1099.19 1922.98,4 -4,4"/>
<!-- fake -->
<g id="node1" class="node">
<title>fake</title>
</g>
<!-- S0 -->
<g id="node3" class="node">
<title>S0</title>
<ellipse fill="none" stroke="black" cx="1606.98" cy="-1004.19" rx="27" ry="18"/>
<text text-anchor="middle" x="1606.98" y="-1000.49" font-family="Times,serif" font-size="14.00">S0</text>
</g>
<!-- fake&#45;&gt;S0 -->
<g id="edge1" class="edge">
<title>fake&#45;&gt;S0</title>
<path fill="none" stroke="black" stroke-width="2" d="M1606.98,-1059.01C1606.98,-1050.98 1606.98,-1041.24 1606.98,-1032.26"/>
<polygon fill="black" stroke="black" stroke-width="2" points="1610.48,-1032.22 1606.98,-1022.22 1603.48,-1032.22 1610.48,-1032.22"/>
</g>
<!-- S5 -->
<g id="node2" class="node">
<title>S5</title>
<ellipse fill="none" stroke="black" cx="617.98" cy="-569.19" rx="27" ry="18"/>
<text text-anchor="middle" x="617.98" y="-565.49" font-family="Times,serif" font-size="14.00">S5</text>
</g>
<!-- S6 -->
<g id="node6" class="node">
<title>S6</title>
<ellipse fill="none" stroke="black" cx="482.98" cy="-482.19" rx="27" ry="18"/>
<text text-anchor="middle" x="482.98" y="-478.49" font-family="Times,serif" font-size="14.00">S6</text>
</g>
<!-- S5&#45;&gt;S6 -->
<g id="edge13" class="edge">
<title>S5&#45;&gt;S6</title>
<path fill="none" stroke="black" d="M591.63,-565.07C556.5,-560.3 497.19,-549.95 483.98,-533.19 478.97,-526.84 477.48,-518.49 477.6,-510.44"/>
<polygon fill="black" stroke="black" points="481.11,-510.49 478.54,-500.21 474.14,-509.85 481.11,-510.49"/>
<text text-anchor="middle" x="586.48" y="-521.99" font-family="Times,serif" font-size="14.00">!DELIVERED_PACKAGE3_L2</text>
</g>
<!-- S12 -->
<g id="node13" class="node">
<title>S12</title>
<ellipse fill="none" stroke="black" cx="870.98" cy="-32.6" rx="28.68" ry="28.68"/>
<ellipse fill="none" stroke="black" cx="870.98" cy="-32.6" rx="32.7" ry="32.7"/>
<text text-anchor="middle" x="870.98" y="-28.9" font-family="Times,serif" font-size="14.00">S12</text>
</g>
<!-- S5&#45;&gt;S12 -->
<g id="edge12" class="edge">
<title>S5&#45;&gt;S12</title>
<path fill="none" stroke="black" d="M642.63,-561.7C658.03,-556.42 677.13,-547.47 688.98,-533.19 703.72,-515.44 702.98,-506.27 702.98,-483.19 702.98,-483.19 702.98,-483.19 702.98,-350.69 702.98,-323.1 696.52,-308.72 716.98,-290.19 763.49,-248.1 814.18,-318.06 856.98,-272.19 906.47,-219.15 894.89,-127.26 882.57,-74.34"/>
<polygon fill="black" stroke="black" points="885.89,-73.18 880.12,-64.29 879.09,-74.84 885.89,-73.18"/>
<text text-anchor="middle" x="816.48" y="-304.49" font-family="Times,serif" font-size="14.00">DELIVERED_PACKAGE3_L2</text>
</g>
<!-- S1 -->
<g id="node4" class="node">
<title>S1</title>
<ellipse fill="none" stroke="black" cx="1492.98" cy="-917.19" rx="27" ry="18"/>
<text text-anchor="middle" x="1492.98" y="-913.49" font-family="Times,serif" font-size="14.00">S1</text>
</g>
<!-- S0&#45;&gt;S1 -->
<g id="edge3" class="edge">
<title>S0&#45;&gt;S1</title>
<path fill="none" stroke="black" d="M1580.06,-1001.88C1555.65,-999.18 1520.58,-991.22 1500.98,-968.19 1495.67,-961.96 1493.17,-953.64 1492.13,-945.58"/>
<polygon fill="black" stroke="black" points="1495.61,-945.09 1491.5,-935.33 1488.62,-945.52 1495.61,-945.09"/>
<text text-anchor="middle" x="1603.48" y="-956.99" font-family="Times,serif" font-size="14.00">!DELIVERED_PACKAGE3_L2</text>
</g>
<!-- S0&#45;&gt;S12 -->
<g id="edge2" class="edge">
<title>S0&#45;&gt;S12</title>
<path fill="none" stroke="black" d="M1633.79,-1000.51C1656.11,-996.86 1687.18,-988.3 1705.98,-968.19 1721.74,-951.34 1719.98,-941.27 1719.98,-918.19 1719.98,-918.19 1719.98,-918.19 1719.98,-133.19 1719.98,-51.16 1086.57,-36.53 913.97,-34.07"/>
<polygon fill="black" stroke="black" points="913.79,-30.57 903.74,-33.93 913.69,-37.57 913.79,-30.57"/>
<text text-anchor="middle" x="1819.48" y="-521.99" font-family="Times,serif" font-size="14.00">DELIVERED_PACKAGE3_L2</text>
</g>
<!-- S2 -->
<g id="node11" class="node">
<title>S2</title>
<ellipse fill="none" stroke="black" cx="1272.98" cy="-830.19" rx="27" ry="18"/>
<text text-anchor="middle" x="1272.98" y="-826.49" font-family="Times,serif" font-size="14.00">S2</text>
</g>
<!-- S1&#45;&gt;S2 -->
<g id="edge5" class="edge">
<title>S1&#45;&gt;S2</title>
<path fill="none" stroke="black" d="M1465.8,-916C1412.79,-915 1298.63,-909.51 1273.98,-881.19 1268.53,-874.93 1267.01,-866.37 1267.25,-858.1"/>
<polygon fill="black" stroke="black" points="1270.75,-858.3 1268.32,-847.98 1263.79,-857.56 1270.75,-858.3"/>
<text text-anchor="middle" x="1376.48" y="-869.99" font-family="Times,serif" font-size="14.00">!DELIVERED_PACKAGE3_L2</text>
</g>
<!-- S1&#45;&gt;S12 -->
<g id="edge4" class="edge">
<title>S1&#45;&gt;S12</title>
<path fill="none" stroke="black" d="M1492.98,-898.94C1492.98,-881.77 1492.98,-854.66 1492.98,-831.19 1492.98,-831.19 1492.98,-831.19 1492.98,-133.19 1492.98,-74.44 1054.66,-44.14 913.93,-35.93"/>
<polygon fill="black" stroke="black" points="913.73,-32.41 903.55,-35.33 913.33,-39.4 913.73,-32.41"/>
<text text-anchor="middle" x="1592.48" y="-478.49" font-family="Times,serif" font-size="14.00">DELIVERED_PACKAGE3_L2</text>
</g>
<!-- S11 -->
<g id="node5" class="node">
<title>S11</title>
<ellipse fill="none" stroke="black" cx="34.98" cy="-32.6" rx="28.7" ry="18"/>
<text text-anchor="middle" x="34.98" y="-28.9" font-family="Times,serif" font-size="14.00">S11</text>
</g>
<!-- S11&#45;&gt;S11 -->
<g id="edge24" class="edge">
<title>S11&#45;&gt;S11</title>
<path fill="none" stroke="black" d="M58.48,-43.09C70.63,-44.7 81.58,-41.21 81.58,-32.6 81.58,-26.54 76.16,-23.02 68.73,-22.02"/>
<polygon fill="black" stroke="black" points="68.45,-18.52 58.48,-22.1 68.51,-25.52 68.45,-18.52"/>
</g>
<!-- S7 -->
<g id="node8" class="node">
<title>S7</title>
<ellipse fill="none" stroke="black" cx="436.98" cy="-395.19" rx="27" ry="18"/>
<text text-anchor="middle" x="436.98" y="-391.49" font-family="Times,serif" font-size="14.00">S7</text>
</g>
<!-- S6&#45;&gt;S7 -->
<g id="edge15" class="edge">
<title>S6&#45;&gt;S7</title>
<path fill="none" stroke="black" d="M461.94,-470.45C452.85,-464.61 443.13,-456.46 437.98,-446.19 434.5,-439.26 433.33,-431.07 433.28,-423.35"/>
<polygon fill="black" stroke="black" points="436.78,-423.44 433.79,-413.28 429.79,-423.09 436.78,-423.44"/>
<text text-anchor="middle" x="540.48" y="-434.99" font-family="Times,serif" font-size="14.00">!DELIVERED_PACKAGE3_L2</text>
</g>
<!-- S6&#45;&gt;S12 -->
<g id="edge14" class="edge">
<title>S6&#45;&gt;S12</title>
<path fill="none" stroke="black" d="M509.75,-479.12C550.65,-475.36 625.78,-465.91 642.98,-446.19 698.37,-382.7 599.36,-317.73 657.98,-257.19 708.07,-205.47 764.93,-286.76 818.98,-239.19 872.55,-192.06 838.84,-152.21 856.98,-83.19 857.76,-80.22 858.59,-77.15 859.43,-74.06"/>
<polygon fill="black" stroke="black" points="862.85,-74.81 862.14,-64.24 856.11,-72.95 862.85,-74.81"/>
<text text-anchor="middle" x="757.48" y="-260.99" font-family="Times,serif" font-size="14.00">DELIVERED_PACKAGE3_L2</text>
</g>
<!-- S8 -->
<g id="node7" class="node">
<title>S8</title>
<ellipse fill="none" stroke="black" cx="385.98" cy="-308.19" rx="27" ry="18"/>
<text text-anchor="middle" x="385.98" y="-304.49" font-family="Times,serif" font-size="14.00">S8</text>
</g>
<!-- S9 -->
<g id="node10" class="node">
<title>S9</title>
<ellipse fill="none" stroke="black" cx="247.98" cy="-221.19" rx="27" ry="18"/>
<text text-anchor="middle" x="247.98" y="-217.49" font-family="Times,serif" font-size="14.00">S9</text>
</g>
<!-- S8&#45;&gt;S9 -->
<g id="edge19" class="edge">
<title>S8&#45;&gt;S9</title>
<path fill="none" stroke="black" d="M358.74,-307.78C329.24,-306.84 282.93,-300.5 256.98,-272.19 251.36,-266.07 248.66,-257.68 247.49,-249.52"/>
<polygon fill="black" stroke="black" points="250.98,-249.21 246.72,-239.5 244,-249.74 250.98,-249.21"/>
<text text-anchor="middle" x="359.48" y="-260.99" font-family="Times,serif" font-size="14.00">!DELIVERED_PACKAGE3_L2</text>
</g>
<!-- S8&#45;&gt;S12 -->
<g id="edge18" class="edge">
<title>S8&#45;&gt;S12</title>
<path fill="none" stroke="black" d="M411.51,-302.07C428.51,-297.29 449.88,-288.36 461.98,-272.19 489.44,-235.51 449.17,-206.61 476.98,-170.19 562.32,-58.47 744.91,-37.65 828.1,-34.1"/>
<polygon fill="black" stroke="black" points="828.34,-37.6 838.21,-33.74 828.09,-30.6 828.34,-37.6"/>
<text text-anchor="middle" x="576.48" y="-173.99" font-family="Times,serif" font-size="14.00">DELIVERED_PACKAGE3_L2</text>
</g>
<!-- S7&#45;&gt;S8 -->
<g id="edge17" class="edge">
<title>S7&#45;&gt;S8</title>
<path fill="none" stroke="black" d="M414.97,-384.7C404.51,-378.94 393.01,-370.51 386.98,-359.19 383.33,-352.35 382.1,-344.19 382.06,-336.47"/>
<polygon fill="black" stroke="black" points="385.56,-336.55 382.61,-326.37 378.57,-336.17 385.56,-336.55"/>
<text text-anchor="middle" x="489.48" y="-347.99" font-family="Times,serif" font-size="14.00">!DELIVERED_PACKAGE3_L2</text>
</g>
<!-- S7&#45;&gt;S12 -->
<g id="edge16" class="edge">
<title>S7&#45;&gt;S12</title>
<path fill="none" stroke="black" d="M463.67,-391.7C503.22,-387.43 574.58,-377.39 591.98,-359.19 640.67,-308.29 573.6,-256.21 619.98,-203.19 637.19,-183.52 652.86,-197.4 675.98,-185.19 739.88,-151.45 804.15,-96.44 840.61,-62.79"/>
<polygon fill="black" stroke="black" points="843.03,-65.32 847.96,-55.95 838.26,-60.2 843.03,-65.32"/>
<text text-anchor="middle" x="719.48" y="-217.49" font-family="Times,serif" font-size="14.00">DELIVERED_PACKAGE3_L2</text>
</g>
<!-- S3 -->
<g id="node9" class="node">
<title>S3</title>
<ellipse fill="none" stroke="black" cx="1051.98" cy="-743.19" rx="27" ry="18"/>
<text text-anchor="middle" x="1051.98" y="-739.49" font-family="Times,serif" font-size="14.00">S3</text>
</g>
<!-- S4 -->
<g id="node12" class="node">
<title>S4</title>
<ellipse fill="none" stroke="black" cx="831.98" cy="-656.19" rx="27" ry="18"/>
<text text-anchor="middle" x="831.98" y="-652.49" font-family="Times,serif" font-size="14.00">S4</text>
</g>
<!-- S3&#45;&gt;S4 -->
<g id="edge9" class="edge">
<title>S3&#45;&gt;S4</title>
<path fill="none" stroke="black" d="M1024.8,-742C971.79,-741 857.63,-735.51 832.98,-707.19 827.53,-700.93 826.01,-692.37 826.25,-684.1"/>
<polygon fill="black" stroke="black" points="829.75,-684.3 827.32,-673.98 822.79,-683.56 829.75,-684.3"/>
<text text-anchor="middle" x="935.48" y="-695.99" font-family="Times,serif" font-size="14.00">!DELIVERED_PACKAGE3_L2</text>
</g>
<!-- S3&#45;&gt;S12 -->
<g id="edge8" class="edge">
<title>S3&#45;&gt;S12</title>
<path fill="none" stroke="black" d="M1051.98,-724.94C1051.98,-707.77 1051.98,-680.66 1051.98,-657.19 1051.98,-657.19 1051.98,-657.19 1051.98,-133.19 1051.98,-70.18 966.74,-46.75 913.25,-38.25"/>
<polygon fill="black" stroke="black" points="913.74,-34.78 903.34,-36.79 912.72,-41.71 913.74,-34.78"/>
<text text-anchor="middle" x="1151.48" y="-391.49" font-family="Times,serif" font-size="14.00">DELIVERED_PACKAGE3_L2</text>
</g>
<!-- S9&#45;&gt;S12 -->
<g id="edge20" class="edge">
<title>S9&#45;&gt;S12</title>
<path fill="none" stroke="black" d="M221.78,-216.64C165.6,-208.43 36.61,-186.21 10.98,-152.19 -7.85,-127.2 -0.59,-101.22 24.98,-83.19 58.09,-59.85 660.58,-39.96 828.09,-34.86"/>
<polygon fill="black" stroke="black" points="828.37,-38.36 838.26,-34.55 828.15,-31.36 828.37,-38.36"/>
<text text-anchor="middle" x="110.48" y="-130.49" font-family="Times,serif" font-size="14.00">DELIVERED_PACKAGE3_L2</text>
</g>
<!-- S10 -->
<g id="node14" class="node">
<title>S10</title>
<ellipse fill="none" stroke="black" cx="247.98" cy="-134.19" rx="28.7" ry="18"/>
<text text-anchor="middle" x="247.98" y="-130.49" font-family="Times,serif" font-size="14.00">S10</text>
</g>
<!-- S9&#45;&gt;S10 -->
<g id="edge21" class="edge">
<title>S9&#45;&gt;S10</title>
<path fill="none" stroke="black" d="M247.98,-202.99C247.98,-191.36 247.98,-175.74 247.98,-162.43"/>
<polygon fill="black" stroke="black" points="251.48,-162.37 247.98,-152.37 244.48,-162.37 251.48,-162.37"/>
<text text-anchor="middle" x="350.48" y="-173.99" font-family="Times,serif" font-size="14.00">!DELIVERED_PACKAGE3_L2</text>
</g>
<!-- S2&#45;&gt;S3 -->
<g id="edge7" class="edge">
<title>S2&#45;&gt;S3</title>
<path fill="none" stroke="black" d="M1246.06,-828.56C1194.73,-826.77 1085.63,-819.95 1059.98,-794.19 1054.05,-788.24 1051.43,-779.76 1050.48,-771.46"/>
<polygon fill="black" stroke="black" points="1053.97,-771.11 1050.04,-761.27 1046.98,-771.41 1053.97,-771.11"/>
<text text-anchor="middle" x="1162.48" y="-782.99" font-family="Times,serif" font-size="14.00">!DELIVERED_PACKAGE3_L2</text>
</g>
<!-- S2&#45;&gt;S12 -->
<g id="edge6" class="edge">
<title>S2&#45;&gt;S12</title>
<path fill="none" stroke="black" d="M1274.91,-811.96C1276.67,-794.81 1278.98,-767.72 1278.98,-744.19 1278.98,-744.19 1278.98,-744.19 1278.98,-133.19 1278.98,-58.65 1018.68,-39.65 913.91,-35.02"/>
<polygon fill="black" stroke="black" points="913.82,-31.51 903.68,-34.59 913.52,-38.5 913.82,-31.51"/>
<text text-anchor="middle" x="1378.48" y="-434.99" font-family="Times,serif" font-size="14.00">DELIVERED_PACKAGE3_L2</text>
</g>
<!-- S4&#45;&gt;S5 -->
<g id="edge11" class="edge">
<title>S4&#45;&gt;S5</title>
<path fill="none" stroke="black" d="M804.74,-654.86C752.83,-653.6 642.78,-647.67 618.98,-620.19 613.54,-613.92 612.03,-605.36 612.26,-597.09"/>
<polygon fill="black" stroke="black" points="615.76,-597.28 613.34,-586.97 608.8,-596.55 615.76,-597.28"/>
<text text-anchor="middle" x="721.48" y="-608.99" font-family="Times,serif" font-size="14.00">!DELIVERED_PACKAGE3_L2</text>
</g>
<!-- S4&#45;&gt;S12 -->
<g id="edge10" class="edge">
<title>S4&#45;&gt;S12</title>
<path fill="none" stroke="black" d="M833.91,-637.96C835.67,-620.81 837.98,-593.72 837.98,-570.19 837.98,-570.19 837.98,-570.19 837.98,-394.19 837.98,-371.97 824.99,-361.47 838.98,-344.19 861.09,-316.88 891.16,-351.07 915.98,-326.19 935.47,-306.66 929.98,-293.29 929.98,-265.69 929.98,-265.69 929.98,-265.69 929.98,-133.19 929.98,-107.46 915.22,-82.55 900.46,-64.08"/>
<polygon fill="black" stroke="black" points="903.07,-61.74 893.96,-56.32 897.7,-66.23 903.07,-61.74"/>
<text text-anchor="middle" x="938.48" y="-347.99" font-family="Times,serif" font-size="14.00">DELIVERED_PACKAGE3_L2</text>
</g>
<!-- S12&#45;&gt;S12 -->
<g id="edge25" class="edge">
<title>S12&#45;&gt;S12</title>
<path fill="none" stroke="black" d="M902.11,-43.47C912.88,-43.58 921.58,-39.96 921.58,-32.6 921.58,-27.77 917.83,-24.54 912.21,-22.93"/>
<polygon fill="black" stroke="black" points="912.45,-19.44 902.11,-21.73 911.62,-26.39 912.45,-19.44"/>
</g>
<!-- S10&#45;&gt;S11 -->
<g id="edge23" class="edge">
<title>S10&#45;&gt;S11</title>
<path fill="none" stroke="black" d="M225.15,-122.84C218.74,-120.3 211.68,-117.84 204.98,-116.19 168.31,-107.17 61.45,-126.08 35.98,-98.19 26.85,-88.2 26.11,-73.26 27.87,-60.27"/>
<polygon fill="black" stroke="black" points="31.32,-60.87 29.72,-50.4 24.44,-59.59 31.32,-60.87"/>
<text text-anchor="middle" x="138.48" y="-86.99" font-family="Times,serif" font-size="14.00">!DELIVERED_PACKAGE3_L2</text>
</g>
<!-- S10&#45;&gt;S12 -->
<g id="edge22" class="edge">
<title>S10&#45;&gt;S12</title>
<path fill="none" stroke="black" d="M248.77,-116.11C250.25,-104.94 254.13,-91.02 263.98,-83.19 307.96,-48.26 697.15,-37.15 828.16,-34.38"/>
<polygon fill="black" stroke="black" points="828.3,-37.88 838.22,-34.17 828.15,-30.88 828.3,-37.88"/>
<text text-anchor="middle" x="363.48" y="-86.99" font-family="Times,serif" font-size="14.00">DELIVERED_PACKAGE3_L2</text>
</g>
</g>
</svg>
