<?xml version="1.0" encoding="UTF-8" standalone="no"?>
<!DOCTYPE svg PUBLIC "-//W3C//DTD SVG 1.1//EN"
 "http://www.w3.org/Graphics/SVG/1.1/DTD/svg11.dtd">
<!-- Generated by graphviz version 2.43.0 (0)
 -->
<!-- Title: %3 Pages: 1 -->
<svg width="926pt" height="395pt"
 viewBox="0.00 0.00 926.00 395.50" xmlns="http://www.w3.org/2000/svg" xmlns:xlink="http://www.w3.org/1999/xlink">
<g id="graph0" class="graph" transform="scale(1 1) rotate(0) translate(4 391.5)">
<title>%3</title>
<polygon fill="white" stroke="transparent" points="-4,4 -4,-391.5 922,-391.5 922,4 -4,4"/>
<!-- fake -->
<g id="node1" class="node">
<title>fake</title>
</g>
<!-- S0 -->
<g id="node2" class="node">
<title>S0</title>
<ellipse fill="none" stroke="black" cx="583" cy="-296.5" rx="27" ry="18"/>
<text text-anchor="middle" x="583" y="-292.8" font-family="Times,serif" font-size="14.00">S0</text>
</g>
<!-- fake&#45;&gt;S0 -->
<g id="edge1" class="edge">
<title>fake&#45;&gt;S0</title>
<path fill="none" stroke="black" stroke-width="2" d="M583,-351.31C583,-343.29 583,-333.54 583,-324.57"/>
<polygon fill="black" stroke="black" stroke-width="2" points="586.5,-324.52 583,-314.52 579.5,-324.52 586.5,-324.52"/>
</g>
<!-- S1 -->
<g id="node3" class="node">
<title>S1</title>
<ellipse fill="none" stroke="black" cx="469" cy="-209.5" rx="27" ry="18"/>
<text text-anchor="middle" x="469" y="-205.8" font-family="Times,serif" font-size="14.00">S1</text>
</g>
<!-- S0&#45;&gt;S1 -->
<g id="edge3" class="edge">
<title>S0&#45;&gt;S1</title>
<path fill="none" stroke="black" d="M556.08,-294.18C531.67,-291.48 496.6,-283.52 477,-260.5 471.69,-254.26 469.19,-245.94 468.15,-237.88"/>
<polygon fill="black" stroke="black" points="471.63,-237.39 467.52,-227.63 464.64,-237.82 471.63,-237.39"/>
<text text-anchor="middle" x="579.5" y="-249.3" font-family="Times,serif" font-size="14.00">!DELIVERED_PACKAGE1_L1</text>
</g>
<!-- S4 -->
<g id="node6" class="node">
<title>S4</title>
<ellipse fill="none" stroke="black" cx="469" cy="-26.75" rx="22.96" ry="22.96"/>
<ellipse fill="none" stroke="black" cx="469" cy="-26.75" rx="27" ry="27"/>
<text text-anchor="middle" x="469" y="-23.05" font-family="Times,serif" font-size="14.00">S4</text>
</g>
<!-- S0&#45;&gt;S4 -->
<g id="edge2" class="edge">
<title>S0&#45;&gt;S4</title>
<path fill="none" stroke="black" d="M609.91,-294.17C633.26,-291.43 665.79,-283.42 682,-260.5 705.26,-227.6 877.41,-380.34 672,-104.5 632.77,-51.82 552.85,-35.29 505.83,-30.11"/>
<polygon fill="black" stroke="black" points="506.06,-26.62 495.76,-29.12 505.37,-33.59 506.06,-26.62"/>
<text text-anchor="middle" x="818.5" y="-162.3" font-family="Times,serif" font-size="14.00">DELIVERED_PACKAGE1_L1</text>
</g>
<!-- S2 -->
<g id="node5" class="node">
<title>S2</title>
<ellipse fill="none" stroke="black" cx="249" cy="-122.5" rx="27" ry="18"/>
<text text-anchor="middle" x="249" y="-118.8" font-family="Times,serif" font-size="14.00">S2</text>
</g>
<!-- S1&#45;&gt;S2 -->
<g id="edge5" class="edge">
<title>S1&#45;&gt;S2</title>
<path fill="none" stroke="black" d="M441.82,-208.3C388.81,-207.3 274.65,-201.81 250,-173.5 244.55,-167.23 243.03,-158.67 243.27,-150.4"/>
<polygon fill="black" stroke="black" points="246.77,-150.6 244.34,-140.28 239.81,-149.86 246.77,-150.6"/>
<text text-anchor="middle" x="352.5" y="-162.3" font-family="Times,serif" font-size="14.00">!DELIVERED_PACKAGE1_L1</text>
</g>
<!-- S1&#45;&gt;S4 -->
<g id="edge4" class="edge">
<title>S1&#45;&gt;S4</title>
<path fill="none" stroke="black" d="M469,-191.49C469,-162.49 469,-102.86 469,-64.12"/>
<polygon fill="black" stroke="black" points="472.5,-63.8 469,-53.8 465.5,-63.8 472.5,-63.8"/>
<text text-anchor="middle" x="568.5" y="-118.8" font-family="Times,serif" font-size="14.00">DELIVERED_PACKAGE1_L1</text>
</g>
<!-- S3 -->
<g id="node4" class="node">
<title>S3</title>
<ellipse fill="none" stroke="black" cx="27" cy="-26.75" rx="27" ry="18"/>
<text text-anchor="middle" x="27" y="-23.05" font-family="Times,serif" font-size="14.00">S3</text>
</g>
<!-- S3&#45;&gt;S3 -->
<g id="edge8" class="edge">
<title>S3&#45;&gt;S3</title>
<path fill="none" stroke="black" d="M50.15,-36.21C61.7,-37.52 72,-34.37 72,-26.75 72,-21.51 67.13,-18.38 60.34,-17.37"/>
<polygon fill="black" stroke="black" points="60.18,-13.86 50.15,-17.29 60.13,-20.86 60.18,-13.86"/>
</g>
<!-- S2&#45;&gt;S3 -->
<g id="edge7" class="edge">
<title>S2&#45;&gt;S3</title>
<path fill="none" stroke="black" d="M221.94,-120.62C171.46,-118.42 65.75,-110.94 40,-86.5 31.56,-78.48 28,-66.32 26.68,-55.14"/>
<polygon fill="black" stroke="black" points="30.15,-54.63 26.01,-44.88 23.17,-55.09 30.15,-54.63"/>
<text text-anchor="middle" x="142.5" y="-75.3" font-family="Times,serif" font-size="14.00">!DELIVERED_PACKAGE1_L1</text>
</g>
<!-- S2&#45;&gt;S4 -->
<g id="edge6" class="edge">
<title>S2&#45;&gt;S4</title>
<path fill="none" stroke="black" d="M246.78,-104.09C246.42,-93.36 247.96,-80.06 256,-71.5 279.55,-46.4 377.62,-34.86 432.1,-30.3"/>
<polygon fill="black" stroke="black" points="432.69,-33.76 442.38,-29.47 432.13,-26.78 432.69,-33.76"/>
<text text-anchor="middle" x="355.5" y="-75.3" font-family="Times,serif" font-size="14.00">DELIVERED_PACKAGE1_L1</text>
</g>
<!-- S4&#45;&gt;S4 -->
<g id="edge9" class="edge">
<title>S4&#45;&gt;S4</title>
<path fill="none" stroke="black" d="M494.3,-36.41C504.83,-37.08 513.75,-33.86 513.75,-26.75 513.75,-22.08 509.91,-19.09 504.29,-17.77"/>
<polygon fill="black" stroke="black" points="504.52,-14.28 494.3,-17.08 504.04,-21.27 504.52,-14.28"/>
</g>
</g>
</svg>
