<?xml version="1.0" encoding="UTF-8" standalone="no"?>
<!DOCTYPE svg PUBLIC "-//W3C//DTD SVG 1.1//EN"
 "http://www.w3.org/Graphics/SVG/1.1/DTD/svg11.dtd">
<!-- Generated by graphviz version 2.40.1 (20161225.0304)
 -->
<!-- Title: %3 Pages: 1 -->
<svg width="1147pt" height="557pt"
 viewBox="0.00 0.00 1146.92 557.44" xmlns="http://www.w3.org/2000/svg" xmlns:xlink="http://www.w3.org/1999/xlink">
<g id="graph0" class="graph" transform="scale(1 1) rotate(0) translate(4 553.4407)">
<title>%3</title>
<polygon fill="#ffffff" stroke="transparent" points="-4,4 -4,-553.4407 1142.9223,-553.4407 1142.9223,4 -4,4"/>
<!-- fake -->
<g id="node1" class="node">
<title>fake</title>
</g>
<!-- S0
{0} -->
<g id="node10" class="node">
<title>S0
{0}</title>
<ellipse fill="none" stroke="#000000" cx="578.9223" cy="-431.8305" rx="27" ry="26.7407"/>
<text text-anchor="middle" x="578.9223" y="-435.6305" font-family="Times,serif" font-size="14.00" fill="#000000">S0</text>
<text text-anchor="middle" x="578.9223" y="-420.6305" font-family="Times,serif" font-size="14.00" fill="#000000">{0}</text>
</g>
<!-- fake&#45;&gt;S0
{0} -->
<g id="edge1" class="edge">
<title>fake&#45;&gt;S0
{0}</title>
<path fill="none" stroke="#000000" stroke-width="2" d="M578.9223,-504.208C578.9223,-494.1146 578.9223,-481.2172 578.9223,-469.1135"/>
<polygon fill="#000000" stroke="#000000" stroke-width="2" points="582.4224,-468.7715 578.9223,-458.7715 575.4224,-468.7716 582.4224,-468.7715"/>
</g>
<!-- S2
{0} -->
<g id="node2" class="node">
<title>S2
{0}</title>
<ellipse fill="none" stroke="#000000" cx="650.9223" cy="-522.5706" rx="27" ry="26.7407"/>
<text text-anchor="middle" x="650.9223" y="-526.3706" font-family="Times,serif" font-size="14.00" fill="#000000">S2</text>
<text text-anchor="middle" x="650.9223" y="-511.3706" font-family="Times,serif" font-size="14.00" fill="#000000">{0}</text>
</g>
<!-- S7
{1} -->
<g id="node3" class="node">
<title>S7
{1}</title>
<ellipse fill="none" stroke="#000000" cx="138.9223" cy="-236.3503" rx="27" ry="26.7407"/>
<text text-anchor="middle" x="138.9223" y="-240.1503" font-family="Times,serif" font-size="14.00" fill="#000000">S7</text>
<text text-anchor="middle" x="138.9223" y="-225.1503" font-family="Times,serif" font-size="14.00" fill="#000000">{1}</text>
</g>
<!-- S7
{1}&#45;&gt;S7
{1} -->
<g id="edge18" class="edge">
<title>S7
{1}&#45;&gt;S7
{1}</title>
<path fill="none" stroke="#000000" d="M164.3658,-246.0146C174.9501,-246.6811 183.9223,-243.4597 183.9223,-236.3503 183.9223,-231.6848 180.0583,-228.6936 174.4104,-227.3769"/>
<polygon fill="#000000" stroke="#000000" points="174.5824,-223.8805 164.3658,-226.686 174.102,-230.864 174.5824,-223.8805"/>
<text text-anchor="middle" x="221.9223" y="-232.6503" font-family="Times,serif" font-size="14.00" fill="#000000">A&amp;D&amp;C&amp;!B</text>
</g>
<!-- S8
{3} -->
<g id="node4" class="node">
<title>S8
{3}</title>
<ellipse fill="none" stroke="#000000" cx="276.9223" cy="-131.6102" rx="27" ry="26.7407"/>
<text text-anchor="middle" x="276.9223" y="-135.4102" font-family="Times,serif" font-size="14.00" fill="#000000">S8</text>
<text text-anchor="middle" x="276.9223" y="-120.4102" font-family="Times,serif" font-size="14.00" fill="#000000">{3}</text>
</g>
<!-- S7
{1}&#45;&gt;S8
{3} -->
<g id="edge21" class="edge">
<title>S7
{1}&#45;&gt;S8
{3}</title>
<path fill="none" stroke="#000000" d="M159.2446,-218.1798C173.1818,-205.9784 192.2749,-189.7663 209.9223,-176.4802 216.5909,-171.4597 231.585,-161.3802 245.7012,-152.0443"/>
<polygon fill="#000000" stroke="#000000" points="247.872,-154.8054 254.2948,-146.3793 244.0193,-148.961 247.872,-154.8054"/>
<text text-anchor="middle" x="245.9223" y="-180.2802" font-family="Times,serif" font-size="14.00" fill="#000000">A&amp;D&amp;C&amp;B</text>
</g>
<!-- S4
{2} -->
<g id="node5" class="node">
<title>S4
{2}</title>
<ellipse fill="none" stroke="#000000" cx="403.9223" cy="-26.8701" rx="27" ry="26.7407"/>
<text text-anchor="middle" x="403.9223" y="-30.6701" font-family="Times,serif" font-size="14.00" fill="#000000">S4</text>
<text text-anchor="middle" x="403.9223" y="-15.6701" font-family="Times,serif" font-size="14.00" fill="#000000">{2}</text>
</g>
<!-- S7
{1}&#45;&gt;S4
{2} -->
<g id="edge15" class="edge">
<title>S7
{1}&#45;&gt;S4
{2}</title>
<path fill="none" stroke="#000000" d="M112.6455,-229.9658C80.5693,-220.5395 28.1067,-199.4139 7.9223,-158.4802 -2.6408,-137.0585 -2.6408,-126.1619 7.9223,-104.7401 18.5764,-83.1337 28.6455,-80.9102 50.9223,-71.7401 107.461,-48.4665 287.6064,-34.3581 366.4111,-29.1557"/>
<polygon fill="#000000" stroke="#000000" points="367.0819,-32.6197 376.8348,-28.4807 366.6295,-25.6343 367.0819,-32.6197"/>
<text text-anchor="middle" x="25.4223" y="-127.9102" font-family="Times,serif" font-size="14.00" fill="#000000">!A&amp;B</text>
</g>
<!-- S7
{1}&#45;&gt;S4
{2} -->
<g id="edge19" class="edge">
<title>S7
{1}&#45;&gt;S4
{2}</title>
<path fill="none" stroke="#000000" d="M119.1619,-217.7924C93.8292,-191.6724 55.7827,-142.9827 78.9223,-104.7401 108.721,-55.4921 287.5652,-35.8063 366.513,-29.442"/>
<polygon fill="#000000" stroke="#000000" points="367.2649,-32.8943 376.964,-28.6307 366.723,-25.9153 367.2649,-32.8943"/>
<text text-anchor="middle" x="106.4223" y="-127.9102" font-family="Times,serif" font-size="14.00" fill="#000000">A&amp;!C&amp;B</text>
</g>
<!-- S7
{1}&#45;&gt;S4
{2} -->
<g id="edge20" class="edge">
<title>S7
{1}&#45;&gt;S4
{2}</title>
<path fill="none" stroke="#000000" d="M137.6494,-209.3739C137.6804,-180.6412 141.8663,-135.1933 164.9223,-104.7401 189.6367,-72.0965 306.5278,-45.4704 367.1887,-33.5787"/>
<polygon fill="#000000" stroke="#000000" points="367.9662,-36.9933 377.1234,-31.6644 366.6418,-30.1197 367.9662,-36.9933"/>
<text text-anchor="middle" x="202.9223" y="-127.9102" font-family="Times,serif" font-size="14.00" fill="#000000">A&amp;!D&amp;C&amp;B</text>
</g>
<!-- S6
{0} -->
<g id="node7" class="node">
<title>S6
{0}</title>
<ellipse fill="none" stroke="#000000" cx="610.9223" cy="-131.6102" rx="27" ry="26.7407"/>
<text text-anchor="middle" x="610.9223" y="-135.4102" font-family="Times,serif" font-size="14.00" fill="#000000">S6</text>
<text text-anchor="middle" x="610.9223" y="-120.4102" font-family="Times,serif" font-size="14.00" fill="#000000">{0}</text>
</g>
<!-- S7
{1}&#45;&gt;S6
{0} -->
<g id="edge16" class="edge">
<title>S7
{1}&#45;&gt;S6
{0}</title>
<path fill="none" stroke="#000000" d="M165.4,-230.0806C192.5025,-223.8993 235.9173,-214.6502 273.9223,-209.4802 381.2299,-194.8827 414.3275,-226.1545 516.9223,-191.4802 528.4839,-187.5727 529.6527,-183.0736 539.9223,-176.4802 552.7582,-168.2392 566.9594,-159.2409 579.2666,-151.4803"/>
<polygon fill="#000000" stroke="#000000" points="581.2503,-154.3673 587.8469,-146.0766 577.52,-148.4441 581.2503,-154.3673"/>
<text text-anchor="middle" x="569.9223" y="-180.2802" font-family="Times,serif" font-size="14.00" fill="#000000">A&amp;!C&amp;!B</text>
</g>
<!-- S7
{1}&#45;&gt;S6
{0} -->
<g id="edge17" class="edge">
<title>S7
{1}&#45;&gt;S6
{0}</title>
<path fill="none" stroke="#000000" d="M165.3804,-229.9315C192.4675,-223.6329 235.8704,-214.2931 273.9223,-209.4802 309.913,-204.928 572.6996,-215.4589 599.9223,-191.4802 606.5342,-185.6562 610.0061,-177.2754 611.682,-168.6209"/>
<polygon fill="#000000" stroke="#000000" points="615.1833,-168.8193 612.9048,-158.4724 608.2336,-167.9818 615.1833,-168.8193"/>
<text text-anchor="middle" x="649.4223" y="-180.2802" font-family="Times,serif" font-size="14.00" fill="#000000">A&amp;!D&amp;C&amp;!B</text>
</g>
<!-- S8
{3}&#45;&gt;S8
{3} -->
<g id="edge14" class="edge">
<title>S8
{3}&#45;&gt;S8
{3}</title>
<path fill="none" stroke="#000000" d="M302.3658,-141.2745C312.9501,-141.941 321.9223,-138.7195 321.9223,-131.6102 321.9223,-126.9446 318.0583,-123.9535 312.4104,-122.6368"/>
<polygon fill="#000000" stroke="#000000" points="312.5824,-119.1404 302.3658,-121.9459 312.102,-126.1239 312.5824,-119.1404"/>
<text text-anchor="middle" x="347.9223" y="-127.9102" font-family="Times,serif" font-size="14.00" fill="#000000">A&amp;D&amp;C</text>
</g>
<!-- S8
{3}&#45;&gt;S4
{2} -->
<g id="edge11" class="edge">
<title>S8
{3}&#45;&gt;S4
{2}</title>
<path fill="none" stroke="#000000" d="M255.1172,-115.659C240.9521,-103.3327 226.9881,-86.0223 237.9223,-71.7401 253.5051,-51.386 322.8832,-38.1481 366.8691,-31.6385"/>
<polygon fill="#000000" stroke="#000000" points="367.5134,-35.082 376.9176,-30.2024 366.523,-28.1524 367.5134,-35.082"/>
<text text-anchor="middle" x="245.4223" y="-75.5401" font-family="Times,serif" font-size="14.00" fill="#000000">!A</text>
</g>
<!-- S8
{3}&#45;&gt;S4
{2} -->
<g id="edge12" class="edge">
<title>S8
{3}&#45;&gt;S4
{2}</title>
<path fill="none" stroke="#000000" d="M269.9742,-105.407C268.5259,-94.1104 269.1274,-81.3224 275.9223,-71.7401 286.7543,-56.4647 333.533,-42.8506 367.4118,-34.7297"/>
<polygon fill="#000000" stroke="#000000" points="368.5122,-38.0672 377.4576,-32.39 366.9243,-31.2496 368.5122,-38.0672"/>
<text text-anchor="middle" x="293.4223" y="-75.5401" font-family="Times,serif" font-size="14.00" fill="#000000">A&amp;!C</text>
</g>
<!-- S8
{3}&#45;&gt;S4
{2} -->
<g id="edge13" class="edge">
<title>S8
{3}&#45;&gt;S4
{2}</title>
<path fill="none" stroke="#000000" d="M294.2971,-111.0073C305.0591,-98.8691 319.5331,-83.6158 333.9223,-71.7401 345.5686,-62.1282 359.3854,-52.8794 371.6541,-45.3019"/>
<polygon fill="#000000" stroke="#000000" points="373.5141,-48.2674 380.2608,-40.0984 369.8924,-42.2771 373.5141,-48.2674"/>
<text text-anchor="middle" x="361.9223" y="-75.5401" font-family="Times,serif" font-size="14.00" fill="#000000">A&amp;!D&amp;C</text>
</g>
<!-- S4
{2}&#45;&gt;S4
{2} -->
<g id="edge31" class="edge">
<title>S4
{2}&#45;&gt;S4
{2}</title>
<path fill="none" stroke="#000000" d="M429.3658,-36.5344C439.9501,-37.2009 448.9223,-33.9794 448.9223,-26.8701 448.9223,-22.2045 445.0583,-19.2134 439.4104,-17.8967"/>
<polygon fill="#000000" stroke="#000000" points="439.5824,-14.4003 429.3658,-17.2058 439.102,-21.3838 439.5824,-14.4003"/>
</g>
<!-- S1
{0} -->
<g id="node6" class="node">
<title>S1
{0}</title>
<ellipse fill="none" stroke="#000000" cx="578.9223" cy="-341.0904" rx="27" ry="26.7407"/>
<text text-anchor="middle" x="578.9223" y="-344.8904" font-family="Times,serif" font-size="14.00" fill="#000000">S1</text>
<text text-anchor="middle" x="578.9223" y="-329.8904" font-family="Times,serif" font-size="14.00" fill="#000000">{0}</text>
</g>
<!-- S1
{0}&#45;&gt;S7
{1} -->
<g id="edge8" class="edge">
<title>S1
{0}&#45;&gt;S7
{1}</title>
<path fill="none" stroke="#000000" d="M551.8327,-339.9344C476.8393,-336.4056 267.9577,-324.2584 205.9223,-296.2203 189.9472,-289.0001 175.0861,-276.5812 163.4395,-264.9195"/>
<polygon fill="#000000" stroke="#000000" points="165.7132,-262.2331 156.2709,-257.4276 160.6556,-267.0726 165.7132,-262.2331"/>
<text text-anchor="middle" x="243.9223" y="-285.0203" font-family="Times,serif" font-size="14.00" fill="#000000">A&amp;D&amp;C&amp;!B</text>
</g>
<!-- S1
{0}&#45;&gt;S8
{3} -->
<g id="edge10" class="edge">
<title>S1
{0}&#45;&gt;S8
{3}</title>
<path fill="none" stroke="#000000" d="M551.7948,-337.1277C489.9085,-327.5047 341.2286,-300.8938 309.9223,-263.2203 298.018,-248.8949 288.2284,-202.0459 282.4835,-168.3219"/>
<polygon fill="#000000" stroke="#000000" points="285.9157,-167.6236 280.8326,-158.3277 279.0093,-168.7645 285.9157,-167.6236"/>
<text text-anchor="middle" x="345.9223" y="-232.6503" font-family="Times,serif" font-size="14.00" fill="#000000">A&amp;D&amp;C&amp;B</text>
</g>
<!-- S1
{0}&#45;&gt;S4
{2} -->
<g id="edge4" class="edge">
<title>S1
{0}&#45;&gt;S4
{2}</title>
<path fill="none" stroke="#000000" d="M552.1819,-335.9158C513.6958,-328.0315 445.1902,-312.2305 425.9223,-296.2203 392.6746,-268.5942 407.7698,-244.1288 381.9223,-209.4802 374.9669,-200.1565 367.5185,-202.1659 362.9223,-191.4802 360.2881,-185.3561 360.21,-182.5702 362.9223,-176.4802 367.7876,-165.5559 377.2089,-168.9859 382.9223,-158.4802 398.8019,-129.2815 403.4727,-91.412 404.5139,-63.796"/>
<polygon fill="#000000" stroke="#000000" points="408.0139,-63.8333 404.751,-53.7535 401.0158,-63.668 408.0139,-63.8333"/>
<text text-anchor="middle" x="390.4223" y="-180.2802" font-family="Times,serif" font-size="14.00" fill="#000000">!A&amp;C&amp;B</text>
</g>
<!-- S1
{0}&#45;&gt;S4
{2} -->
<g id="edge9" class="edge">
<title>S1
{0}&#45;&gt;S4
{2}</title>
<path fill="none" stroke="#000000" d="M556.9452,-325.0283C524.8496,-300.2598 465.8374,-249.4907 436.9223,-191.4802 412.8529,-143.1914 428.8944,-124.3502 416.9223,-71.7401 416.2424,-68.7523 415.48,-65.6691 414.6743,-62.5838"/>
<polygon fill="#000000" stroke="#000000" points="418.0212,-61.554 412.0013,-52.8356 411.2704,-63.4052 418.0212,-61.554"/>
<text text-anchor="middle" x="474.9223" y="-180.2802" font-family="Times,serif" font-size="14.00" fill="#000000">A&amp;!D&amp;C&amp;B</text>
</g>
<!-- S1
{0}&#45;&gt;S6
{0} -->
<g id="edge7" class="edge">
<title>S1
{0}&#45;&gt;S6
{0}</title>
<path fill="none" stroke="#000000" d="M599.2177,-323.2636C626.8879,-297.4551 675.1547,-246.6916 693.9223,-191.4802 702.3899,-166.5699 673.2897,-150.4456 647.2503,-141.2779"/>
<polygon fill="#000000" stroke="#000000" points="648.0974,-137.8728 637.505,-138.101 645.9278,-144.5281 648.0974,-137.8728"/>
<text text-anchor="middle" x="726.4223" y="-232.6503" font-family="Times,serif" font-size="14.00" fill="#000000">A&amp;!D&amp;C&amp;!B</text>
</g>
<!-- S5
{0} -->
<g id="node8" class="node">
<title>S5
{0}</title>
<ellipse fill="none" stroke="#000000" cx="844.9223" cy="-236.3503" rx="27" ry="26.7407"/>
<text text-anchor="middle" x="844.9223" y="-240.1503" font-family="Times,serif" font-size="14.00" fill="#000000">S5</text>
<text text-anchor="middle" x="844.9223" y="-225.1503" font-family="Times,serif" font-size="14.00" fill="#000000">{0}</text>
</g>
<!-- S1
{0}&#45;&gt;S5
{0} -->
<g id="edge5" class="edge">
<title>S1
{0}&#45;&gt;S5
{0}</title>
<path fill="none" stroke="#000000" d="M605.3026,-334.6396C636.1104,-326.8124 688.4018,-312.6104 731.9223,-296.2203 764.487,-283.9563 772.42,-279.9677 802.9223,-263.2203 806.4079,-261.3066 809.995,-259.2144 813.5349,-257.0695"/>
<polygon fill="#000000" stroke="#000000" points="815.5155,-259.9593 822.1523,-251.7007 811.8139,-254.018 815.5155,-259.9593"/>
<text text-anchor="middle" x="797.9223" y="-285.0203" font-family="Times,serif" font-size="14.00" fill="#000000">A&amp;!C&amp;!B</text>
</g>
<!-- S3
{0} -->
<g id="node9" class="node">
<title>S3
{0}</title>
<ellipse fill="none" stroke="#000000" cx="961.9223" cy="-131.6102" rx="27" ry="26.7407"/>
<text text-anchor="middle" x="961.9223" y="-135.4102" font-family="Times,serif" font-size="14.00" fill="#000000">S3</text>
<text text-anchor="middle" x="961.9223" y="-120.4102" font-family="Times,serif" font-size="14.00" fill="#000000">{0}</text>
</g>
<!-- S1
{0}&#45;&gt;S3
{0} -->
<g id="edge3" class="edge">
<title>S1
{0}&#45;&gt;S3
{0}</title>
<path fill="none" stroke="#000000" d="M605.9929,-338.3619C682.9495,-330.1749 901.1508,-303.8468 958.9223,-263.2203 995.1405,-237.7507 1025.1204,-217.2808 1007.9223,-176.4802 1004.434,-168.2046 998.591,-160.6968 992.2191,-154.2922"/>
<polygon fill="#000000" stroke="#000000" points="994.3384,-151.4865 984.6055,-147.3007 989.6037,-156.6424 994.3384,-151.4865"/>
<text text-anchor="middle" x="1040.9223" y="-232.6503" font-family="Times,serif" font-size="14.00" fill="#000000">!A&amp;!C&amp;B</text>
</g>
<!-- S1
{0}&#45;&gt;S3
{0} -->
<g id="edge6" class="edge">
<title>S1
{0}&#45;&gt;S3
{0}</title>
<path fill="none" stroke="#000000" d="M606.1293,-338.9082C705.5193,-330.6602 1044.7486,-299.9829 1074.9223,-263.2203 1090.0755,-244.7582 1086.0301,-230.6246 1074.9223,-209.4802 1058.6396,-178.4852 1023.8152,-157.4151 997.1017,-145.0889"/>
<polygon fill="#000000" stroke="#000000" points="998.239,-141.7655 987.6762,-140.9411 995.4194,-148.1726 998.239,-141.7655"/>
<text text-anchor="middle" x="1111.4223" y="-232.6503" font-family="Times,serif" font-size="14.00" fill="#000000">A&amp;!C&amp;B</text>
</g>
<!-- S6
{0}&#45;&gt;S4
{2} -->
<g id="edge22" class="edge">
<title>S6
{0}&#45;&gt;S4
{2}</title>
<path fill="none" stroke="#000000" d="M585.8548,-121.439C564.9994,-112.7741 534.6701,-99.7001 508.9223,-86.7401 483.9411,-74.166 456.5119,-58.4573 435.9545,-46.2858"/>
<polygon fill="#000000" stroke="#000000" points="437.6923,-43.2471 427.3098,-41.1364 434.1099,-49.261 437.6923,-43.2471"/>
<text text-anchor="middle" x="526.4223" y="-75.5401" font-family="Times,serif" font-size="14.00" fill="#000000">!A&amp;B</text>
</g>
<!-- S6
{0}&#45;&gt;S4
{2} -->
<g id="edge24" class="edge">
<title>S6
{0}&#45;&gt;S4
{2}</title>
<path fill="none" stroke="#000000" d="M592.6969,-111.423C580.0946,-98.5145 562.3363,-82.2761 543.9223,-71.7401 511.2244,-53.0312 469.6928,-40.9803 440.3828,-34.129"/>
<polygon fill="#000000" stroke="#000000" points="441.084,-30.6994 430.5598,-31.9201 439.5482,-37.5288 441.084,-30.6994"/>
<text text-anchor="middle" x="579.4223" y="-75.5401" font-family="Times,serif" font-size="14.00" fill="#000000">A&amp;B</text>
</g>
<!-- S6
{0}&#45;&gt;S6
{0} -->
<g id="edge23" class="edge">
<title>S6
{0}&#45;&gt;S6
{0}</title>
<path fill="none" stroke="#000000" d="M636.3658,-141.2745C646.9501,-141.941 655.9223,-138.7195 655.9223,-131.6102 655.9223,-126.9446 652.0583,-123.9535 646.4104,-122.6368"/>
<polygon fill="#000000" stroke="#000000" points="646.5824,-119.1404 636.3658,-121.9459 646.102,-126.1239 646.5824,-119.1404"/>
<text text-anchor="middle" x="673.4223" y="-127.9102" font-family="Times,serif" font-size="14.00" fill="#000000">A&amp;!B</text>
</g>
<!-- S5
{0}&#45;&gt;S4
{2} -->
<g id="edge26" class="edge">
<title>S5
{0}&#45;&gt;S4
{2}</title>
<path fill="none" stroke="#000000" d="M833.5156,-211.896C827.0331,-200.0302 817.9917,-186.2637 806.9223,-176.4802 792.9197,-164.1043 784.8342,-168.2806 768.9223,-158.4802 735.8258,-138.0956 734.2418,-122.9908 699.9223,-104.7401 614.0174,-59.057 499.5715,-38.8867 441.3596,-31.1037"/>
<polygon fill="#000000" stroke="#000000" points="441.5292,-27.5968 431.1641,-29.7913 440.6354,-34.5395 441.5292,-27.5968"/>
<text text-anchor="middle" x="796.4223" y="-127.9102" font-family="Times,serif" font-size="14.00" fill="#000000">!A&amp;C&amp;B</text>
</g>
<!-- S5
{0}&#45;&gt;S4
{2} -->
<g id="edge30" class="edge">
<title>S5
{0}&#45;&gt;S4
{2}</title>
<path fill="none" stroke="#000000" d="M848.8368,-209.494C851.5312,-179.7762 850.7033,-132.4338 823.9223,-104.7401 771.1181,-50.1364 533.879,-33.0585 441.1928,-28.4141"/>
<polygon fill="#000000" stroke="#000000" points="441.296,-24.9151 431.1395,-27.9311 440.96,-31.9071 441.296,-24.9151"/>
<text text-anchor="middle" x="872.4223" y="-127.9102" font-family="Times,serif" font-size="14.00" fill="#000000">A&amp;C&amp;B</text>
</g>
<!-- S5
{0}&#45;&gt;S6
{0} -->
<g id="edge29" class="edge">
<title>S5
{0}&#45;&gt;S6
{0}</title>
<path fill="none" stroke="#000000" d="M822.8071,-220.8611C816.5467,-216.8507 809.6118,-212.7465 802.9223,-209.4802 781.3225,-198.9337 773.4757,-202.1212 751.9223,-191.4802 740.9793,-186.0776 739.7995,-182.0142 728.9223,-176.4802 702.2579,-162.9143 670.4805,-151.0583 646.6235,-142.9457"/>
<polygon fill="#000000" stroke="#000000" points="647.5158,-139.5537 636.922,-139.704 645.2973,-146.1929 647.5158,-139.5537"/>
<text text-anchor="middle" x="779.4223" y="-180.2802" font-family="Times,serif" font-size="14.00" fill="#000000">A&amp;C&amp;!B</text>
</g>
<!-- S5
{0}&#45;&gt;S5
{0} -->
<g id="edge27" class="edge">
<title>S5
{0}&#45;&gt;S5
{0}</title>
<path fill="none" stroke="#000000" d="M870.3658,-246.0146C880.9501,-246.6811 889.9223,-243.4597 889.9223,-236.3503 889.9223,-231.6848 886.0583,-228.6936 880.4104,-227.3769"/>
<polygon fill="#000000" stroke="#000000" points="880.5824,-223.8805 870.3658,-226.686 880.102,-230.864 880.5824,-223.8805"/>
<text text-anchor="middle" x="919.9223" y="-232.6503" font-family="Times,serif" font-size="14.00" fill="#000000">A&amp;!C&amp;!B</text>
</g>
<!-- S5
{0}&#45;&gt;S3
{0} -->
<g id="edge25" class="edge">
<title>S5
{0}&#45;&gt;S3
{0}</title>
<path fill="none" stroke="#000000" d="M855.588,-211.5472C861.503,-199.8767 869.7351,-186.3829 879.9223,-176.4802 893.3168,-163.4599 911.2447,-153.0767 926.9209,-145.5916"/>
<polygon fill="#000000" stroke="#000000" points="928.679,-148.6369 936.3299,-141.308 925.7785,-142.2661 928.679,-148.6369"/>
<text text-anchor="middle" x="909.9223" y="-180.2802" font-family="Times,serif" font-size="14.00" fill="#000000">!A&amp;!C&amp;B</text>
</g>
<!-- S5
{0}&#45;&gt;S3
{0} -->
<g id="edge28" class="edge">
<title>S5
{0}&#45;&gt;S3
{0}</title>
<path fill="none" stroke="#000000" d="M871.2245,-229.8973C892.4068,-223.4448 921.5797,-211.5348 939.9223,-191.4802 946.0583,-184.7715 950.5214,-176.208 953.7535,-167.6694"/>
<polygon fill="#000000" stroke="#000000" points="957.0881,-168.733 956.903,-158.1398 950.4417,-166.5363 957.0881,-168.733"/>
<text text-anchor="middle" x="976.4223" y="-180.2802" font-family="Times,serif" font-size="14.00" fill="#000000">A&amp;!C&amp;B</text>
</g>
<!-- S3
{0}&#45;&gt;S4
{2} -->
<g id="edge33" class="edge">
<title>S3
{0}&#45;&gt;S4
{2}</title>
<path fill="none" stroke="#000000" d="M940.1827,-115.0523C920.3968,-100.9438 889.7982,-81.4563 859.9223,-71.7401 782.2549,-46.4812 535.81,-32.8749 441.3068,-28.4787"/>
<polygon fill="#000000" stroke="#000000" points="441.2252,-24.9715 431.0759,-28.0114 440.9057,-31.9642 441.2252,-24.9715"/>
<text text-anchor="middle" x="896.9223" y="-75.5401" font-family="Times,serif" font-size="14.00" fill="#000000">C</text>
</g>
<!-- S3
{0}&#45;&gt;S3
{0} -->
<g id="edge32" class="edge">
<title>S3
{0}&#45;&gt;S3
{0}</title>
<path fill="none" stroke="#000000" d="M987.3658,-141.2745C997.9501,-141.941 1006.9223,-138.7195 1006.9223,-131.6102 1006.9223,-126.9446 1003.0583,-123.9535 997.4104,-122.6368"/>
<polygon fill="#000000" stroke="#000000" points="997.5824,-119.1404 987.3658,-121.9459 997.102,-126.1239 997.5824,-119.1404"/>
<text text-anchor="middle" x="1013.9223" y="-127.9102" font-family="Times,serif" font-size="14.00" fill="#000000">!C</text>
</g>
<!-- S0
{0}&#45;&gt;S1
{0} -->
<g id="edge2" class="edge">
<title>S0
{0}&#45;&gt;S1
{0}</title>
<path fill="none" stroke="#000000" d="M578.9223,-404.6055C578.9223,-396.2758 578.9223,-386.9692 578.9223,-378.1035"/>
<polygon fill="#000000" stroke="#000000" points="582.4224,-377.9835 578.9223,-367.9835 575.4224,-377.9836 582.4224,-377.9835"/>
</g>
</g>
</svg>
