<?xml version="1.0" encoding="UTF-8" standalone="no"?>
<!DOCTYPE svg PUBLIC "-//W3C//DTD SVG 1.1//EN"
 "http://www.w3.org/Graphics/SVG/1.1/DTD/svg11.dtd">
<!-- Generated by graphviz version 2.40.1 (20161225.0304)
 -->
<!-- Title: %3 Pages: 1 -->
<svg width="1602pt" height="540pt"
 viewBox="0.00 0.00 1602.08 539.70" xmlns="http://www.w3.org/2000/svg" xmlns:xlink="http://www.w3.org/1999/xlink">
<g id="graph0" class="graph" transform="scale(1 1) rotate(0) translate(4 535.7006)">
<title>%3</title>
<polygon fill="#ffffff" stroke="transparent" points="-4,4 -4,-535.7006 1598.076,-535.7006 1598.076,4 -4,4"/>
<!-- fake -->
<g id="node1" class="node">
<title>fake</title>
</g>
<!-- S0
{0} -->
<g id="node10" class="node">
<title>S0
{0}</title>
<ellipse fill="none" stroke="#000000" cx="843.076" cy="-431.8305" rx="27" ry="26.7407"/>
<text text-anchor="middle" x="843.076" y="-435.6305" font-family="Times,serif" font-size="14.00" fill="#000000">S0</text>
<text text-anchor="middle" x="843.076" y="-420.6305" font-family="Times,serif" font-size="14.00" fill="#000000">{0}</text>
</g>
<!-- fake&#45;&gt;S0
{0} -->
<g id="edge1" class="edge">
<title>fake&#45;&gt;S0
{0}</title>
<path fill="none" stroke="#000000" stroke-width="2" d="M843.076,-495.531C843.076,-487.7271 843.076,-478.3048 843.076,-469.1282"/>
<polygon fill="#000000" stroke="#000000" stroke-width="2" points="846.5761,-468.9712 843.076,-458.9712 839.5761,-468.9713 846.5761,-468.9712"/>
</g>
<!-- S2
{0} -->
<g id="node2" class="node">
<title>S2
{0}</title>
<ellipse fill="none" stroke="#000000" cx="345.076" cy="-26.8701" rx="27" ry="26.7407"/>
<text text-anchor="middle" x="345.076" y="-30.6701" font-family="Times,serif" font-size="14.00" fill="#000000">S2</text>
<text text-anchor="middle" x="345.076" y="-15.6701" font-family="Times,serif" font-size="14.00" fill="#000000">{0}</text>
</g>
<!-- S2
{0}&#45;&gt;S2
{0} -->
<g id="edge39" class="edge">
<title>S2
{0}&#45;&gt;S2
{0}</title>
<path fill="none" stroke="#000000" d="M370.5195,-36.5344C381.1039,-37.2009 390.076,-33.9794 390.076,-26.8701 390.076,-22.2045 386.2121,-19.2134 380.5642,-17.8967"/>
<polygon fill="#000000" stroke="#000000" points="380.7362,-14.4003 370.5195,-17.2058 380.2557,-21.3838 380.7362,-14.4003"/>
</g>
<!-- S7
{2} -->
<g id="node3" class="node">
<title>S7
{2}</title>
<ellipse fill="none" stroke="#000000" cx="1235.076" cy="-26.8701" rx="27" ry="26.7407"/>
<text text-anchor="middle" x="1235.076" y="-30.6701" font-family="Times,serif" font-size="14.00" fill="#000000">S7</text>
<text text-anchor="middle" x="1235.076" y="-15.6701" font-family="Times,serif" font-size="14.00" fill="#000000">{2}</text>
</g>
<!-- S7
{2}&#45;&gt;S7
{2} -->
<g id="edge17" class="edge">
<title>S7
{2}&#45;&gt;S7
{2}</title>
<path fill="none" stroke="#000000" d="M1260.5195,-36.5344C1271.1039,-37.2009 1280.076,-33.9794 1280.076,-26.8701 1280.076,-22.2045 1276.2121,-19.2134 1270.5642,-17.8967"/>
<polygon fill="#000000" stroke="#000000" points="1270.7362,-14.4003 1260.5195,-17.2058 1270.2557,-21.3838 1270.7362,-14.4003"/>
</g>
<!-- S5
{0} -->
<g id="node4" class="node">
<title>S5
{0}</title>
<ellipse fill="none" stroke="#000000" cx="854.076" cy="-131.6102" rx="27" ry="26.7407"/>
<text text-anchor="middle" x="854.076" y="-135.4102" font-family="Times,serif" font-size="14.00" fill="#000000">S5</text>
<text text-anchor="middle" x="854.076" y="-120.4102" font-family="Times,serif" font-size="14.00" fill="#000000">{0}</text>
</g>
<!-- S5
{0}&#45;&gt;S2
{0} -->
<g id="edge28" class="edge">
<title>S5
{0}&#45;&gt;S2
{0}</title>
<path fill="none" stroke="#000000" d="M832.1772,-115.6527C826.1776,-111.7332 819.541,-107.7914 813.076,-104.7401 768.4549,-83.6802 755.3069,-82.1496 707.076,-71.7401 590.0924,-46.492 448.5551,-34.0687 382.4643,-29.2944"/>
<polygon fill="#000000" stroke="#000000" points="382.3665,-25.7789 372.1452,-28.5673 381.8744,-32.7616 382.3665,-25.7789"/>
<text text-anchor="middle" x="788.076" y="-75.5401" font-family="Times,serif" font-size="14.00" fill="#000000">!B&amp;!A</text>
</g>
<!-- S5
{0}&#45;&gt;S7
{2} -->
<g id="edge30" class="edge">
<title>S5
{0}&#45;&gt;S7
{2}</title>
<path fill="none" stroke="#000000" d="M878.8229,-120.783C909.5701,-107.6707 963.874,-85.6208 1012.076,-71.7401 1076.5442,-53.1753 1153.6511,-39.4905 1198.2335,-32.3843"/>
<polygon fill="#000000" stroke="#000000" points="1198.9693,-35.8117 1208.3054,-30.8029 1197.8835,-28.8965 1198.9693,-35.8117"/>
<text text-anchor="middle" x="1017.076" y="-75.5401" font-family="Times,serif" font-size="14.00" fill="#000000">B</text>
</g>
<!-- S5
{0}&#45;&gt;S5
{0} -->
<g id="edge29" class="edge">
<title>S5
{0}&#45;&gt;S5
{0}</title>
<path fill="none" stroke="#000000" d="M879.5195,-141.2745C890.1039,-141.941 899.076,-138.7195 899.076,-131.6102 899.076,-126.9446 895.2121,-123.9535 889.5642,-122.6368"/>
<polygon fill="#000000" stroke="#000000" points="889.7362,-119.1404 879.5195,-121.9459 889.2557,-126.1239 889.7362,-119.1404"/>
<text text-anchor="middle" x="916.576" y="-127.9102" font-family="Times,serif" font-size="14.00" fill="#000000">!B&amp;A</text>
</g>
<!-- S4
{0} -->
<g id="node5" class="node">
<title>S4
{0}</title>
<ellipse fill="none" stroke="#000000" cx="979.076" cy="-131.6102" rx="27" ry="26.7407"/>
<text text-anchor="middle" x="979.076" y="-135.4102" font-family="Times,serif" font-size="14.00" fill="#000000">S4</text>
<text text-anchor="middle" x="979.076" y="-120.4102" font-family="Times,serif" font-size="14.00" fill="#000000">{0}</text>
</g>
<!-- S4
{0}&#45;&gt;S7
{2} -->
<g id="edge32" class="edge">
<title>S4
{0}&#45;&gt;S7
{2}</title>
<path fill="none" stroke="#000000" d="M997.4851,-111.8755C1010.8725,-98.6549 1030.0865,-81.8753 1050.076,-71.7401 1097.7664,-47.56 1159.068,-36.0214 1197.7286,-30.8036"/>
<polygon fill="#000000" stroke="#000000" points="1198.525,-34.2305 1208.0023,-29.4943 1197.64,-27.2867 1198.525,-34.2305"/>
<text text-anchor="middle" x="1055.076" y="-75.5401" font-family="Times,serif" font-size="14.00" fill="#000000">C</text>
</g>
<!-- S4
{0}&#45;&gt;S4
{0} -->
<g id="edge31" class="edge">
<title>S4
{0}&#45;&gt;S4
{0}</title>
<path fill="none" stroke="#000000" d="M1004.5195,-141.2745C1015.1039,-141.941 1024.076,-138.7195 1024.076,-131.6102 1024.076,-126.9446 1020.2121,-123.9535 1014.5642,-122.6368"/>
<polygon fill="#000000" stroke="#000000" points="1014.7362,-119.1404 1004.5195,-121.9459 1014.2557,-126.1239 1014.7362,-119.1404"/>
<text text-anchor="middle" x="1031.076" y="-127.9102" font-family="Times,serif" font-size="14.00" fill="#000000">!C</text>
</g>
<!-- S8
{3} -->
<g id="node6" class="node">
<title>S8
{3}</title>
<ellipse fill="none" stroke="#000000" cx="1394.076" cy="-131.6102" rx="27" ry="26.7407"/>
<text text-anchor="middle" x="1394.076" y="-135.4102" font-family="Times,serif" font-size="14.00" fill="#000000">S8</text>
<text text-anchor="middle" x="1394.076" y="-120.4102" font-family="Times,serif" font-size="14.00" fill="#000000">{3}</text>
</g>
<!-- S8
{3}&#45;&gt;S7
{2} -->
<g id="edge13" class="edge">
<title>S8
{3}&#45;&gt;S7
{2}</title>
<path fill="none" stroke="#000000" d="M1389.6635,-104.8748C1386.5164,-93.3373 1381.1602,-80.5061 1372.076,-71.7401 1345.0911,-45.7001 1302.7629,-34.7711 1272.2961,-30.1849"/>
<polygon fill="#000000" stroke="#000000" points="1272.4352,-26.6723 1262.0589,-28.8128 1271.5053,-33.6103 1272.4352,-26.6723"/>
<text text-anchor="middle" x="1389.076" y="-75.5401" font-family="Times,serif" font-size="14.00" fill="#000000">!C</text>
</g>
<!-- S8
{3}&#45;&gt;S7
{2} -->
<g id="edge14" class="edge">
<title>S8
{3}&#45;&gt;S7
{2}</title>
<path fill="none" stroke="#000000" d="M1404.0264,-106.414C1406.8829,-94.7903 1407.4983,-81.4503 1400.076,-71.7401 1384.5961,-51.4884 1315.6329,-38.2155 1271.9089,-31.6718"/>
<polygon fill="#000000" stroke="#000000" points="1272.3182,-28.1946 1261.9202,-30.2276 1271.3165,-35.1226 1272.3182,-28.1946"/>
<text text-anchor="middle" x="1422.576" y="-75.5401" font-family="Times,serif" font-size="14.00" fill="#000000">C&amp;!D</text>
</g>
<!-- S8
{3}&#45;&gt;S7
{2} -->
<g id="edge15" class="edge">
<title>S8
{3}&#45;&gt;S7
{2}</title>
<path fill="none" stroke="#000000" d="M1371.9325,-116.1358C1365.9348,-112.2125 1359.3603,-108.1481 1353.076,-104.7401 1335.5819,-95.253 1329.1352,-96.9888 1312.076,-86.7401 1302.8536,-81.1995 1301.5532,-78.3652 1293.076,-71.7401 1283.8601,-64.5377 1273.7887,-56.7257 1264.6629,-49.6694"/>
<polygon fill="#000000" stroke="#000000" points="1266.6531,-46.7841 1256.5996,-43.4407 1262.3738,-52.3238 1266.6531,-46.7841"/>
<text text-anchor="middle" x="1340.076" y="-75.5401" font-family="Times,serif" font-size="14.00" fill="#000000">C&amp;!A&amp;D</text>
</g>
<!-- S8
{3}&#45;&gt;S8
{3} -->
<g id="edge16" class="edge">
<title>S8
{3}&#45;&gt;S8
{3}</title>
<path fill="none" stroke="#000000" d="M1419.5195,-141.2745C1430.1039,-141.941 1439.076,-138.7195 1439.076,-131.6102 1439.076,-126.9446 1435.2121,-123.9535 1429.5642,-122.6368"/>
<polygon fill="#000000" stroke="#000000" points="1429.7362,-119.1404 1419.5195,-121.9459 1429.2557,-126.1239 1429.7362,-119.1404"/>
<text text-anchor="middle" x="1465.076" y="-127.9102" font-family="Times,serif" font-size="14.00" fill="#000000">C&amp;A&amp;D</text>
</g>
<!-- S1
{0} -->
<g id="node7" class="node">
<title>S1
{0}</title>
<ellipse fill="none" stroke="#000000" cx="843.076" cy="-341.0904" rx="27" ry="26.7407"/>
<text text-anchor="middle" x="843.076" y="-344.8904" font-family="Times,serif" font-size="14.00" fill="#000000">S1</text>
<text text-anchor="middle" x="843.076" y="-329.8904" font-family="Times,serif" font-size="14.00" fill="#000000">{0}</text>
</g>
<!-- S1
{0}&#45;&gt;S2
{0} -->
<g id="edge3" class="edge">
<title>S1
{0}&#45;&gt;S2
{0}</title>
<path fill="none" stroke="#000000" d="M815.8334,-340.9025C687.0122,-339.8266 142.4885,-333.1139 77.076,-296.2203 22.9881,-265.714 -13.3412,-235.784 5.076,-176.4802 21.8299,-122.5328 29.4335,-102.0914 77.076,-71.7401 114.7653,-47.7297 243.4478,-34.6829 307.8026,-29.5224"/>
<polygon fill="#000000" stroke="#000000" points="308.2279,-32.9999 317.9257,-28.7333 307.6839,-26.0211 308.2279,-32.9999"/>
<text text-anchor="middle" x="37.076" y="-180.2802" font-family="Times,serif" font-size="14.00" fill="#000000">!C&amp;!B&amp;!A</text>
</g>
<!-- S1
{0}&#45;&gt;S2
{0} -->
<g id="edge6" class="edge">
<title>S1
{0}&#45;&gt;S2
{0}</title>
<path fill="none" stroke="#000000" d="M815.9498,-340.4483C699.1422,-337.5209 242.377,-324.3531 185.076,-296.2203 124.5891,-266.5234 68.1463,-239.4719 92.076,-176.4802 114.1837,-118.2848 132.3006,-104.7584 185.076,-71.7401 223.0879,-47.9585 273.919,-36.5146 307.993,-31.1933"/>
<polygon fill="#000000" stroke="#000000" points="308.6081,-34.6406 317.997,-29.7315 307.596,-27.7142 308.6081,-34.6406"/>
<text text-anchor="middle" x="134.576" y="-180.2802" font-family="Times,serif" font-size="14.00" fill="#000000">C&amp;!B&amp;!A&amp;!D</text>
</g>
<!-- S1
{0}&#45;&gt;S2
{0} -->
<g id="edge7" class="edge">
<title>S1
{0}&#45;&gt;S2
{0}</title>
<path fill="none" stroke="#000000" d="M815.9544,-339.1029C704.1053,-330.2941 280.8314,-290.7339 202.076,-191.4802 157.7006,-135.5548 256.3116,-72.6942 311.3212,-43.467"/>
<polygon fill="#000000" stroke="#000000" points="313.1429,-46.4645 320.3944,-38.7401 309.9087,-40.2565 313.1429,-46.4645"/>
<text text-anchor="middle" x="242.576" y="-180.2802" font-family="Times,serif" font-size="14.00" fill="#000000">C&amp;!B&amp;!A&amp;D</text>
</g>
<!-- S1
{0}&#45;&gt;S7
{2} -->
<g id="edge10" class="edge">
<title>S1
{0}&#45;&gt;S7
{2}</title>
<path fill="none" stroke="#000000" d="M869.9986,-336.9579C962.4775,-322.145 1264.3636,-268.4685 1317.076,-191.4802 1325.6856,-178.9057 1353.4164,-190.5614 1315.076,-104.7401 1310.3313,-94.1195 1304.4495,-94.8144 1296.076,-86.7401 1284.7301,-75.7995 1272.2979,-63.6307 1261.6341,-53.1365"/>
<polygon fill="#000000" stroke="#000000" points="1263.8019,-50.3589 1254.2225,-45.8326 1258.8884,-55.3447 1263.8019,-50.3589"/>
<text text-anchor="middle" x="1360.576" y="-180.2802" font-family="Times,serif" font-size="14.00" fill="#000000">C&amp;B&amp;!D</text>
</g>
<!-- S1
{0}&#45;&gt;S7
{2} -->
<g id="edge11" class="edge">
<title>S1
{0}&#45;&gt;S7
{2}</title>
<path fill="none" stroke="#000000" d="M870.1011,-339.6903C964.0565,-334.6849 1276.0798,-316.8718 1374.076,-296.2203 1418.2235,-286.9168 1439.0159,-295.9438 1470.076,-263.2203 1519.4275,-211.2262 1535.6425,-166.9815 1500.076,-104.7401 1477.2674,-64.8251 1339.9634,-41.0178 1272.4718,-31.5811"/>
<polygon fill="#000000" stroke="#000000" points="1272.6487,-28.0729 1262.2675,-30.1897 1271.7029,-35.0087 1272.6487,-28.0729"/>
<text text-anchor="middle" x="1556.076" y="-180.2802" font-family="Times,serif" font-size="14.00" fill="#000000">C&amp;B&amp;!A&amp;D</text>
</g>
<!-- S1
{0}&#45;&gt;S5
{0} -->
<g id="edge8" class="edge">
<title>S1
{0}&#45;&gt;S5
{0}</title>
<path fill="none" stroke="#000000" d="M834.9315,-315.2422C825.8735,-282.1729 814.4394,-223.5448 830.076,-176.4802 831.4931,-172.215 833.2948,-167.873 835.2723,-163.6531"/>
<polygon fill="#000000" stroke="#000000" points="838.4164,-165.1914 839.801,-154.6874 832.1682,-162.0353 838.4164,-165.1914"/>
<text text-anchor="middle" x="864.576" y="-232.6503" font-family="Times,serif" font-size="14.00" fill="#000000">C&amp;!B&amp;A&amp;!D</text>
</g>
<!-- S1
{0}&#45;&gt;S4
{0} -->
<g id="edge5" class="edge">
<title>S1
{0}&#45;&gt;S4
{0}</title>
<path fill="none" stroke="#000000" d="M869.729,-336.0499C924.8189,-325.0298 1048.0972,-297.0521 1072.076,-263.2203 1085.8874,-243.734 1080.1057,-231.9745 1072.076,-209.4802 1062.1205,-181.5906 1035.0398,-160.8442 1012.6523,-147.809"/>
<polygon fill="#000000" stroke="#000000" points="1014.1665,-144.6467 1003.7231,-142.8617 1010.774,-150.7697 1014.1665,-144.6467"/>
<text text-anchor="middle" x="1097.076" y="-232.6503" font-family="Times,serif" font-size="14.00" fill="#000000">!C&amp;B</text>
</g>
<!-- S1
{0}&#45;&gt;S8
{3} -->
<g id="edge12" class="edge">
<title>S1
{0}&#45;&gt;S8
{3}</title>
<path fill="none" stroke="#000000" d="M870.1907,-340.3471C970.1254,-337.3864 1314.0914,-325.161 1353.076,-296.2203 1391.8754,-267.4172 1397.7822,-207.9175 1397.0215,-168.9006"/>
<polygon fill="#000000" stroke="#000000" points="1400.5043,-168.3511 1396.6519,-158.4815 1393.5087,-168.5993 1400.5043,-168.3511"/>
<text text-anchor="middle" x="1430.076" y="-232.6503" font-family="Times,serif" font-size="14.00" fill="#000000">C&amp;B&amp;A&amp;D</text>
</g>
<!-- S3
{0} -->
<g id="node8" class="node">
<title>S3
{0}</title>
<ellipse fill="none" stroke="#000000" cx="639.076" cy="-236.3503" rx="27" ry="26.7407"/>
<text text-anchor="middle" x="639.076" y="-240.1503" font-family="Times,serif" font-size="14.00" fill="#000000">S3</text>
<text text-anchor="middle" x="639.076" y="-225.1503" font-family="Times,serif" font-size="14.00" fill="#000000">{0}</text>
</g>
<!-- S1
{0}&#45;&gt;S3
{0} -->
<g id="edge4" class="edge">
<title>S1
{0}&#45;&gt;S3
{0}</title>
<path fill="none" stroke="#000000" d="M816.4908,-335.8124C787.8606,-329.3676 741.6374,-316.7178 706.076,-296.2203 690.9984,-287.5296 676.3379,-275.0434 664.5945,-263.7203"/>
<polygon fill="#000000" stroke="#000000" points="666.8852,-261.0625 657.3235,-256.4989 661.9524,-266.0291 666.8852,-261.0625"/>
<text text-anchor="middle" x="736.076" y="-285.0203" font-family="Times,serif" font-size="14.00" fill="#000000">!C&amp;!B&amp;A</text>
</g>
<!-- S6
{1} -->
<g id="node9" class="node">
<title>S6
{1}</title>
<ellipse fill="none" stroke="#000000" cx="942.076" cy="-236.3503" rx="27" ry="26.7407"/>
<text text-anchor="middle" x="942.076" y="-240.1503" font-family="Times,serif" font-size="14.00" fill="#000000">S6</text>
<text text-anchor="middle" x="942.076" y="-225.1503" font-family="Times,serif" font-size="14.00" fill="#000000">{1}</text>
</g>
<!-- S1
{0}&#45;&gt;S6
{1} -->
<g id="edge9" class="edge">
<title>S1
{0}&#45;&gt;S6
{1}</title>
<path fill="none" stroke="#000000" d="M861.6972,-321.3896C877.1844,-305.0045 899.3861,-281.5155 916.5333,-263.374"/>
<polygon fill="#000000" stroke="#000000" points="919.2128,-265.6344 923.5384,-255.9628 914.1256,-260.826 919.2128,-265.6344"/>
<text text-anchor="middle" x="936.076" y="-285.0203" font-family="Times,serif" font-size="14.00" fill="#000000">C&amp;!B&amp;A&amp;D</text>
</g>
<!-- S3
{0}&#45;&gt;S2
{0} -->
<g id="edge33" class="edge">
<title>S3
{0}&#45;&gt;S2
{0}</title>
<path fill="none" stroke="#000000" d="M611.7418,-234.9807C557.2965,-231.6863 431.8721,-221.2534 331.076,-191.4802 314.1965,-186.4943 268.5815,-173.2932 259.076,-158.4802 246.1768,-138.3785 249.3918,-126.5732 259.076,-104.7401 270.1027,-79.8807 293.4208,-59.5827 312.9975,-45.9498"/>
<polygon fill="#000000" stroke="#000000" points="315.0201,-48.8078 321.3907,-40.3422 311.1314,-42.9873 315.0201,-48.8078"/>
<text text-anchor="middle" x="291.076" y="-127.9102" font-family="Times,serif" font-size="14.00" fill="#000000">!C&amp;!B&amp;!A</text>
</g>
<!-- S3
{0}&#45;&gt;S2
{0} -->
<g id="edge36" class="edge">
<title>S3
{0}&#45;&gt;S2
{0}</title>
<path fill="none" stroke="#000000" d="M611.8272,-233.1075C547.3308,-224.7956 388.5182,-200.3839 359.076,-158.4802 339.8073,-131.056 337.9515,-92.1556 339.9211,-63.7604"/>
<polygon fill="#000000" stroke="#000000" points="343.4393,-63.7076 340.8349,-53.4378 336.4666,-63.0902 343.4393,-63.7076"/>
<text text-anchor="middle" x="389.076" y="-127.9102" font-family="Times,serif" font-size="14.00" fill="#000000">C&amp;!B&amp;!A</text>
</g>
<!-- S3
{0}&#45;&gt;S7
{2} -->
<g id="edge38" class="edge">
<title>S3
{0}&#45;&gt;S7
{2}</title>
<path fill="none" stroke="#000000" d="M643.8551,-209.806C652.8124,-169.4637 676.4967,-94.9518 732.076,-71.7401 816.2677,-36.579 1096.0471,-28.9321 1197.7275,-27.3017"/>
<polygon fill="#000000" stroke="#000000" points="1197.8906,-30.7998 1207.837,-27.1503 1197.7856,-23.8006 1197.8906,-30.7998"/>
<text text-anchor="middle" x="703.076" y="-127.9102" font-family="Times,serif" font-size="14.00" fill="#000000">C&amp;B</text>
</g>
<!-- S3
{0}&#45;&gt;S5
{0} -->
<g id="edge37" class="edge">
<title>S3
{0}&#45;&gt;S5
{0}</title>
<path fill="none" stroke="#000000" d="M658.8496,-217.9185C675.9712,-202.342 699.7196,-181.746 711.076,-176.4802 752.8388,-157.1157 770.2819,-175.4441 813.076,-158.4802 816.6066,-157.0807 820.1521,-155.3526 823.6001,-153.453"/>
<polygon fill="#000000" stroke="#000000" points="825.6666,-156.294 832.422,-148.1321 822.0513,-150.2999 825.6666,-156.294"/>
<text text-anchor="middle" x="738.576" y="-180.2802" font-family="Times,serif" font-size="14.00" fill="#000000">C&amp;!B&amp;A</text>
</g>
<!-- S3
{0}&#45;&gt;S4
{0} -->
<g id="edge35" class="edge">
<title>S3
{0}&#45;&gt;S4
{0}</title>
<path fill="none" stroke="#000000" d="M665.3984,-229.6498C689.4158,-223.7171 725.9546,-215.1438 758.076,-209.4802 820.2916,-198.5105 840.8297,-215.9439 899.076,-191.4802 908.9955,-187.314 909.4861,-182.9584 918.076,-176.4802 929.0074,-168.2363 932.034,-166.5753 943.076,-158.4802 945.1124,-156.9874 947.2094,-155.4424 949.3192,-153.8823"/>
<polygon fill="#000000" stroke="#000000" points="951.4762,-156.6401 957.4187,-147.8687 947.3033,-151.0198 951.4762,-156.6401"/>
<text text-anchor="middle" x="935.076" y="-180.2802" font-family="Times,serif" font-size="14.00" fill="#000000">!C&amp;B</text>
</g>
<!-- S3
{0}&#45;&gt;S3
{0} -->
<g id="edge34" class="edge">
<title>S3
{0}&#45;&gt;S3
{0}</title>
<path fill="none" stroke="#000000" d="M664.5195,-246.0146C675.1039,-246.6811 684.076,-243.4597 684.076,-236.3503 684.076,-231.6848 680.2121,-228.6936 674.5642,-227.3769"/>
<polygon fill="#000000" stroke="#000000" points="674.7362,-223.8805 664.5195,-226.686 674.2557,-230.864 674.7362,-223.8805"/>
<text text-anchor="middle" x="714.076" y="-232.6503" font-family="Times,serif" font-size="14.00" fill="#000000">!C&amp;!B&amp;A</text>
</g>
<!-- S6
{1}&#45;&gt;S2
{0} -->
<g id="edge18" class="edge">
<title>S6
{1}&#45;&gt;S2
{0}</title>
<path fill="none" stroke="#000000" d="M922.1302,-217.7232C918.0369,-214.6102 913.5917,-211.6822 909.076,-209.4802 876.7082,-193.697 864.2946,-202.6998 830.076,-191.4802 795.0844,-180.0071 781.72,-182.8084 754.076,-158.4802 733.2081,-140.1153 744.5704,-121.0725 722.076,-104.7401 668.2434,-65.654 641.1806,-85.4176 576.076,-71.7401 507.6418,-57.3632 427.4512,-42.1523 381.8192,-33.65"/>
<polygon fill="#000000" stroke="#000000" points="382.2779,-30.1754 371.8066,-31.7888 380.9986,-37.0575 382.2779,-30.1754"/>
<text text-anchor="middle" x="786.076" y="-127.9102" font-family="Times,serif" font-size="14.00" fill="#000000">!C&amp;!B&amp;!A</text>
</g>
<!-- S6
{1}&#45;&gt;S2
{0} -->
<g id="edge19" class="edge">
<title>S6
{1}&#45;&gt;S2
{0}</title>
<path fill="none" stroke="#000000" d="M922.7749,-217.3443C918.5592,-214.183 913.9041,-211.334 909.076,-209.4802 834.0912,-180.6899 626.8694,-207.0754 548.076,-191.4802 505.0523,-182.9648 489.703,-185.3973 455.076,-158.4802 432.3787,-140.8366 437.0425,-127.1828 419.076,-104.7401 404.4859,-86.515 386.4707,-67.4943 371.8686,-52.8139"/>
<polygon fill="#000000" stroke="#000000" points="374.1368,-50.1333 364.58,-45.5597 369.1988,-55.0948 374.1368,-50.1333"/>
<text text-anchor="middle" x="497.576" y="-127.9102" font-family="Times,serif" font-size="14.00" fill="#000000">C&amp;!B&amp;!A&amp;!D</text>
</g>
<!-- S6
{1}&#45;&gt;S2
{0} -->
<g id="edge20" class="edge">
<title>S6
{1}&#45;&gt;S2
{0}</title>
<path fill="none" stroke="#000000" d="M922.7289,-217.4614C918.517,-214.2904 913.8751,-211.4079 909.076,-209.4802 816.808,-172.4179 783.8172,-209.7471 686.076,-191.4802 635.4846,-182.0252 616.3194,-189.2678 575.076,-158.4802 552.2348,-141.4296 562.1185,-122.8115 540.076,-104.7401 492.6773,-65.8804 423.4238,-44.4752 381.4694,-34.3594"/>
<polygon fill="#000000" stroke="#000000" points="382.2087,-30.9381 371.676,-32.084 380.6245,-37.7564 382.2087,-30.9381"/>
<text text-anchor="middle" x="615.576" y="-127.9102" font-family="Times,serif" font-size="14.00" fill="#000000">C&amp;!B&amp;!A&amp;D</text>
</g>
<!-- S6
{1}&#45;&gt;S7
{2} -->
<g id="edge24" class="edge">
<title>S6
{1}&#45;&gt;S7
{2}</title>
<path fill="none" stroke="#000000" d="M968.6286,-230.2714C991.3158,-223.9062 1023.6007,-211.9203 1045.076,-191.4802 1076.2436,-161.8152 1060.9357,-138.1292 1088.076,-104.7401 1103.0498,-86.3189 1109.6527,-83.8415 1130.076,-71.7401 1152.1607,-58.6544 1178.7688,-47.3263 1199.6736,-39.326"/>
<polygon fill="#000000" stroke="#000000" points="1200.9991,-42.567 1209.1359,-35.7815 1198.5436,-36.0118 1200.9991,-42.567"/>
<text text-anchor="middle" x="1105.076" y="-127.9102" font-family="Times,serif" font-size="14.00" fill="#000000">!C&amp;B</text>
</g>
<!-- S6
{1}&#45;&gt;S7
{2} -->
<g id="edge25" class="edge">
<title>S6
{1}&#45;&gt;S7
{2}</title>
<path fill="none" stroke="#000000" d="M968.0473,-228.3448C993.3133,-220.2169 1032.5411,-206.6897 1065.076,-191.4802 1091.5942,-179.0835 1100.7111,-178.491 1122.076,-158.4802 1143.0583,-138.8279 1139.8876,-127.0033 1158.076,-104.7401 1173.236,-86.1839 1192.1316,-67.0252 1207.4103,-52.3547"/>
<polygon fill="#000000" stroke="#000000" points="1210.1892,-54.5426 1215.0314,-45.1191 1205.3694,-49.4661 1210.1892,-54.5426"/>
<text text-anchor="middle" x="1185.576" y="-127.9102" font-family="Times,serif" font-size="14.00" fill="#000000">C&amp;B&amp;!D</text>
</g>
<!-- S6
{1}&#45;&gt;S7
{2} -->
<g id="edge26" class="edge">
<title>S6
{1}&#45;&gt;S7
{2}</title>
<path fill="none" stroke="#000000" d="M968.5431,-230.4317C1033.4415,-215.686 1196.4179,-177.1578 1213.076,-158.4802 1235.8728,-132.9198 1239.6762,-92.9874 1238.8208,-63.808"/>
<polygon fill="#000000" stroke="#000000" points="1242.3055,-63.408 1238.3214,-53.5908 1235.3139,-63.7498 1242.3055,-63.408"/>
<text text-anchor="middle" x="1273.076" y="-127.9102" font-family="Times,serif" font-size="14.00" fill="#000000">C&amp;B&amp;!A&amp;D</text>
</g>
<!-- S6
{1}&#45;&gt;S5
{0} -->
<g id="edge21" class="edge">
<title>S6
{1}&#45;&gt;S5
{0}</title>
<path fill="none" stroke="#000000" d="M916.1254,-228.6335C888.6225,-219.8684 847.9478,-205.0221 839.076,-191.4802 833.7591,-183.3644 834.0798,-173.4998 836.7154,-164.1388"/>
<polygon fill="#000000" stroke="#000000" points="840.0339,-165.2544 840.1606,-154.6603 833.455,-162.8631 840.0339,-165.2544"/>
<text text-anchor="middle" x="869.076" y="-180.2802" font-family="Times,serif" font-size="14.00" fill="#000000">!C&amp;!B&amp;A</text>
</g>
<!-- S6
{1}&#45;&gt;S5
{0} -->
<g id="edge22" class="edge">
<title>S6
{1}&#45;&gt;S5
{0}</title>
<path fill="none" stroke="#000000" d="M955.5386,-212.9862C960.3932,-201.2637 963.1348,-187.2969 956.076,-176.4802 941.7087,-154.464 913.8536,-143.178 890.8782,-137.4342"/>
<polygon fill="#000000" stroke="#000000" points="891.5821,-134.0052 881.0585,-135.2315 890.05,-140.8355 891.5821,-134.0052"/>
<text text-anchor="middle" x="1000.576" y="-180.2802" font-family="Times,serif" font-size="14.00" fill="#000000">C&amp;!B&amp;A&amp;!D</text>
</g>
<!-- S6
{1}&#45;&gt;S8
{3} -->
<g id="edge27" class="edge">
<title>S6
{1}&#45;&gt;S8
{3}</title>
<path fill="none" stroke="#000000" d="M969.0959,-233.0065C1016.3719,-226.8562 1116.9767,-212.4311 1200.076,-191.4802 1220.5182,-186.3264 1224.8548,-182.4423 1245.076,-176.4802 1275.8879,-167.3955 1284.2921,-167.6589 1315.076,-158.4802 1329.5989,-154.15 1345.4441,-148.872 1359.106,-144.1438"/>
<polygon fill="#000000" stroke="#000000" points="1360.3325,-147.4228 1368.6179,-140.8196 1358.0231,-140.8148 1360.3325,-147.4228"/>
<text text-anchor="middle" x="1281.076" y="-180.2802" font-family="Times,serif" font-size="14.00" fill="#000000">C&amp;B&amp;A&amp;D</text>
</g>
<!-- S6
{1}&#45;&gt;S6
{1} -->
<g id="edge23" class="edge">
<title>S6
{1}&#45;&gt;S6
{1}</title>
<path fill="none" stroke="#000000" d="M967.5195,-246.0146C978.1039,-246.6811 987.076,-243.4597 987.076,-236.3503 987.076,-231.6848 983.2121,-228.6936 977.5642,-227.3769"/>
<polygon fill="#000000" stroke="#000000" points="977.7362,-223.8805 967.5195,-226.686 977.2557,-230.864 977.7362,-223.8805"/>
<text text-anchor="middle" x="1025.076" y="-232.6503" font-family="Times,serif" font-size="14.00" fill="#000000">C&amp;!B&amp;A&amp;D</text>
</g>
<!-- S0
{0}&#45;&gt;S1
{0} -->
<g id="edge2" class="edge">
<title>S0
{0}&#45;&gt;S1
{0}</title>
<path fill="none" stroke="#000000" d="M843.076,-404.6055C843.076,-396.2758 843.076,-386.9692 843.076,-378.1035"/>
<polygon fill="#000000" stroke="#000000" points="846.5761,-377.9835 843.076,-367.9835 839.5761,-377.9836 846.5761,-377.9835"/>
</g>
</g>
</svg>
